<svg width="50" height="51" viewBox="0 0 50 51" fill="none" xmlns="http://www.w3.org/2000/svg">
<rect width="50" height="51" fill="#E5E5E5"/>
<g id="Tudo">
<rect width="1440" height="2111" transform="translate(-152 -32)" fill="#F5F5F5"/>
<g id="Topo">
<g id="Interno">
<rect width="1440" height="115" transform="translate(-152 -32)" fill="white"/>
<g id="Topo_2">
<rect width="1136" height="115" transform="translate(0 -32)" fill="white"/>
<g id="Direita">
<g id="Logo">
<g id="sports_esports_black_24dp 1" clip-path="url(#clip0_0_1)">
<g id="Group">
<g id="Group_2">
<path id="Vector" d="M44.9556 34.0208L42.6849 18.0625C42.1016 13.9583 38.581 10.9167 34.4354 10.9167H15.5614C11.4158 10.9167 7.8952 13.9583 7.3119 18.0625L5.04119 34.0208C4.58288 37.2292 7.06191 40.0833 10.2909 40.0833C11.7075 40.0833 13.0407 39.5208 14.0407 38.5208L18.7487 33.8333H31.248L35.9353 38.5208C36.9352 39.5208 38.2893 40.0833 39.6851 40.0833C42.9349 40.0833 45.4139 37.2292 44.9556 34.0208ZM22.9152 23.4167H18.7487V27.5833H16.6655V23.4167H12.4991V21.3333H16.6655V17.1667H18.7487V21.3333H22.9152V23.4167ZM31.248 21.3333C30.1023 21.3333 29.1648 20.3958 29.1648 19.25C29.1648 18.1042 30.1023 17.1667 31.248 17.1667C32.3938 17.1667 33.3313 18.1042 33.3313 19.25C33.3313 20.3958 32.3938 21.3333 31.248 21.3333ZM35.4145 27.5833C34.2687 27.5833 33.3313 26.6458 33.3313 25.5C33.3313 24.3542 34.2687 23.4167 35.4145 23.4167C36.5602 23.4167 37.4977 24.3542 37.4977 25.5C37.4977 26.6458 36.5602 27.5833 35.4145 27.5833Z" fill="#2A7AE4"/>
</g>
</g>
</g>
<g id="Texto">
<g id="AluraGeek">
<path d="M56.7718 16.75H59.8216L66.5713 34.5H63.0215L61.3715 30.075H55.1719L53.547 34.5H49.9972L56.7718 16.75ZM60.7466 27.65L58.2967 20.675L55.7469 27.65H60.7466Z" fill="#2A7AE4"/>
<path d="M68.168 16.25H71.5178V30.3C71.5178 30.7834 71.6345 31.1584 71.8678 31.425C72.1011 31.6917 72.4345 31.825 72.8678 31.825C73.0678 31.825 73.2844 31.7917 73.5177 31.725C73.7677 31.6584 74.001 31.575 74.2177 31.475L74.6677 34.025C74.2177 34.2417 73.6927 34.4084 73.0928 34.525C72.4928 34.6417 71.9512 34.7 71.4678 34.7C70.4179 34.7 69.6013 34.425 69.018 33.875C68.4514 33.3084 68.168 32.5084 68.168 31.475V16.25Z" fill="#2A7AE4"/>
<path d="M80.1269 34.75C78.777 34.75 77.7521 34.3167 77.0521 33.45C76.3521 32.5834 76.0022 31.3 76.0022 29.6V21.4H79.352V28.875C79.352 30.8917 80.0769 31.9 81.5268 31.9C82.1768 31.9 82.8018 31.7084 83.4017 31.325C84.0184 30.925 84.5183 30.325 84.9017 29.525V21.4H88.2515V30.65C88.2515 31 88.3098 31.25 88.4265 31.4C88.5598 31.55 88.7681 31.6334 89.0514 31.65V34.5C88.7181 34.5667 88.4348 34.6084 88.2015 34.625C87.9848 34.6417 87.7848 34.65 87.6015 34.65C87.0015 34.65 86.5099 34.5167 86.1266 34.25C85.7599 33.9667 85.5433 33.5834 85.4766 33.1L85.4016 32.05C84.8183 32.95 84.0684 33.625 83.1518 34.075C82.2351 34.525 81.2269 34.75 80.1269 34.75Z" fill="#2A7AE4"/>
<path d="M99.3799 24.3C98.3633 24.3167 97.4551 24.5167 96.6551 24.9C95.8551 25.2667 95.2802 25.825 94.9302 26.575V34.5H91.5804V21.4H94.6552V24.2C94.8885 23.75 95.1635 23.35 95.4802 23C95.7968 22.6334 96.1385 22.3167 96.5051 22.05C96.8718 21.7834 97.2384 21.5834 97.605 21.45C97.9884 21.3 98.355 21.225 98.705 21.225C98.8883 21.225 99.0216 21.225 99.105 21.225C99.205 21.225 99.2966 21.2334 99.3799 21.25V24.3Z" fill="#2A7AE4"/>
<path d="M104.652 34.75C104.018 34.75 103.427 34.65 102.877 34.45C102.327 34.2334 101.852 33.9417 101.452 33.575C101.052 33.1917 100.735 32.75 100.502 32.25C100.285 31.75 100.177 31.2 100.177 30.6C100.177 29.9834 100.31 29.4167 100.577 28.9C100.86 28.3667 101.244 27.9167 101.727 27.55C102.227 27.1834 102.818 26.9 103.502 26.7C104.185 26.4834 104.935 26.375 105.752 26.375C106.335 26.375 106.902 26.425 107.452 26.525C108.018 26.625 108.518 26.7667 108.951 26.95V26.2C108.951 25.3334 108.701 24.6667 108.202 24.2C107.718 23.7334 106.993 23.5 106.027 23.5C105.327 23.5 104.643 23.625 103.977 23.875C103.31 24.125 102.627 24.4917 101.927 24.975L100.902 22.85C102.585 21.7334 104.402 21.175 106.352 21.175C108.235 21.175 109.693 21.6417 110.726 22.575C111.776 23.4917 112.301 24.825 112.301 26.575V30.65C112.301 31 112.36 31.25 112.476 31.4C112.61 31.55 112.818 31.6334 113.101 31.65V34.5C112.535 34.6167 112.043 34.675 111.626 34.675C110.993 34.675 110.501 34.5334 110.151 34.25C109.818 33.9667 109.61 33.5917 109.526 33.125L109.451 32.4C108.868 33.1667 108.16 33.75 107.327 34.15C106.493 34.55 105.602 34.75 104.652 34.75ZM105.602 32.3C106.168 32.3 106.702 32.2 107.202 32C107.718 31.8 108.118 31.5334 108.402 31.2C108.768 30.9167 108.951 30.6 108.951 30.25V28.75C108.551 28.6 108.118 28.4834 107.652 28.4C107.185 28.3 106.735 28.25 106.302 28.25C105.435 28.25 104.727 28.45 104.177 28.85C103.627 29.2334 103.352 29.725 103.352 30.325C103.352 30.8917 103.568 31.3667 104.002 31.75C104.435 32.1167 104.968 32.3 105.602 32.3Z" fill="#2A7AE4"/>
</g>
</g>
</g>
</g>
</g>
</g>
</g>
</g>
<defs>
<clipPath id="clip0_0_1">
<rect width="49.9972" height="50" fill="white" transform="translate(0 0.5)"/>
</clipPath>
</defs>
</svg>
